---
const props = Astro.props
---
<svg xmlns="http://www.w3.org/2000/svg" width="1em" height="1em" viewBox="0 0 24 24" {...props}>
	<g fill="none" fill-rule="evenodd">
		<path d="m12.594 23.258l-.012.002l-.071.035l-.02.004l-.014-.004l-.071-.036q-.016-.004-.024.006l-.004.01l-.017.428l.005.02l.01.013l.104.074l.015.004l.012-.004l.104-.074l.012-.016l.004-.017l-.017-.427q-.004-.016-.016-.018m.264-.113l-.014.002l-.184.093l-.01.01l-.003.011l.018.43l.005.012l.008.008l.201.092q.019.005.029-.008l.004-.014l-.034-.614q-.005-.019-.02-.022m-.715.002a.02.02 0 0 0-.027.006l-.006.014l-.034.614q.001.018.017.024l.015-.002l.201-.093l.01-.008l.003-.011l.018-.43l-.003-.012l-.01-.01z" />
		<path fill="currentColor" d="M8.264 15.29a1 1 0 0 1 .822.522l1.892 3.493a1.809 1.809 0 0 1-1.856 2.65l-3.93-.582a1 1 0 0 1-.672-1.563l.623-.89l-.174-.984a1 1 0 0 1 .811-1.159l.985-.173l.623-.89a1 1 0 0 1 .876-.425Zm6.347-.024a1 1 0 0 1 .858-.043l.116.057l.94.543l.966-.259a1 1 0 0 1 1.188.596l.037.111l.259.966l.94.543a1 1 0 0 1 .154 1.623l-.103.078l-3.315 2.188a1.809 1.809 0 0 1-2.805-1.46l.003-.158l.238-3.965a1 1 0 0 1 .524-.82M12 2a4 4 0 0 1 4 4v1c0 1.214.502 2.267 1.166 3.354l.736 1.165c.1.16.195.315.28.457c.32.541.628 1.14.788 1.781a7 7 0 0 1 .194 1.358a2 2 0 0 0-1.932-.516l-.565.151l-.582-.336a2 2 0 0 0-2.996 1.613l-.238 3.965c-.021.345.022.684.121 1.003l-.269.005h-.406q-.114 0-.226-.004c.22-.71.152-1.492-.214-2.167l-1.891-3.493a2 2 0 0 0-3.397-.195l-.385.55l-.33.058a5.4 5.4 0 0 1 .024-1.16c.037-.285.086-.567.152-.832c.198-.792.535-1.459.857-2.02l.437-.74C7.74 10.28 8 9.722 8 9V6a4 4 0 0 1 4-4m-1.438 5.778l-.822.41c.224.597.572 1.156.897 1.6l.204.269l.184.225l.081.094l.25-.141l.329-.197c.176-.109.368-.232.566-.367c.604-.412 1.225-.91 1.662-1.427l-2.316-.58a1.5 1.5 0 0 0-1.035.114" />
	</g>
</svg>
