---
const props = Astro.props
---
<svg xmlns="http://www.w3.org/2000/svg" width="1em" height="1em" viewBox="0 0 24 24" {...props}>
	<g fill="none">
		<g clip-path="url(#grommetIconsVenmo0)">
			<path fill="currentColor" fill-rule="evenodd" d="M24 12c0 6.628-5.372 12-12 12c-6.627 0-12-5.372-12-12C0 5.373 5.373 0 12 0c6.628 0 12 5.373 12 12m-5.982-3.571c0-1-.21-1.79-.677-2.558l-4.035.814c.256.535.42 1.185.42 2.14c0 1.744-1.237 4.303-2.24 5.93L10.413 6.15l-4.431.42l2.03 12.094h5.06c2.216-2.907 4.946-7.047 4.946-10.234Z" clip-rule="evenodd" />
		</g>
		<defs>
			<clipPath id="grommetIconsVenmo0">
				<path fill="#fff" d="M0 0h24v24H0z" />
			</clipPath>
		</defs>
	</g>
</svg>
